<?xml version="1.0" standalone="no"?><!-- Generator: Gravit.io --><svg xmlns="http://www.w3.org/2000/svg" xmlns:xlink="http://www.w3.org/1999/xlink" style="isolation:isolate" viewBox="0 0 100 100" width="100" height="100"><defs><clipPath id="_clipPath_jAOzaeifGo9r9avQXdWLnYV2mS6XRxdK"><rect width="100" height="100"/></clipPath></defs><g clip-path="url(#_clipPath_jAOzaeifGo9r9avQXdWLnYV2mS6XRxdK)"><path d=" M 76.8 79 C 69.8 85.5 60.3 89.5 50 89.5 C 39.7 89.5 30.2 85.5 23.2 79 L 76.8 79 Z  M 79 23.2 C 85.5 30.2 89.5 39.7 89.5 50 C 89.5 60.3 85.5 69.8 79 76.8 L 79 23.2 Z  M 23.2 21 C 30.2 14.5 39.7 10.5 50 10.5 C 60.3 10.5 69.8 14.5 76.8 21 L 23.2 21 Z  M 21 23.2 C 14.5 30.2 10.5 39.7 10.5 50 C 10.5 60.3 14.5 69.8 21 76.8 L 21 23.2 Z " fill="rgb(121,121,121)"/></g></svg>